<mxfile host="Electron" agent="Mozilla/5.0 (Macintosh; Intel Mac OS X 10_15_7) AppleWebKit/537.36 (KHTML, like Gecko) draw.io/27.0.9 Chrome/134.0.6998.205 Electron/35.4.0 Safari/537.36" version="27.0.9">
  <diagram name="Page-1" id="xcyrib5FopCxYTLw511l">
    <mxGraphModel dx="847" dy="781" grid="1" gridSize="10" guides="1" tooltips="1" connect="1" arrows="1" fold="1" page="1" pageScale="1" pageWidth="827" pageHeight="1169" math="0" shadow="0">
      <root>
        <mxCell id="0" />
        <mxCell id="1" parent="0" />
        <mxCell id="61WDl6KjsDRLCkXbvjVP-3" value="" style="rounded=1;whiteSpace=wrap;html=1;fillColor=#d5e8d4;strokeColor=#82b366;gradientColor=none;opacity=30;" parent="1" vertex="1">
          <mxGeometry x="120" y="250" width="250" height="280" as="geometry" />
        </mxCell>
        <mxCell id="61WDl6KjsDRLCkXbvjVP-4" value="&lt;b&gt;&lt;font style=&quot;font-size: 14px;&quot;&gt;frontend&lt;/font&gt;&lt;/b&gt;" style="text;html=1;align=center;verticalAlign=middle;whiteSpace=wrap;rounded=0;" parent="1" vertex="1">
          <mxGeometry x="215" y="210" width="60" height="30" as="geometry" />
        </mxCell>
        <mxCell id="61WDl6KjsDRLCkXbvjVP-5" value="" style="rounded=1;whiteSpace=wrap;html=1;fillColor=#dae8fc;strokeColor=#6c8ebf;opacity=30;" parent="1" vertex="1">
          <mxGeometry x="443" y="250" width="250" height="280" as="geometry" />
        </mxCell>
        <mxCell id="61WDl6KjsDRLCkXbvjVP-6" value="&lt;b&gt;&lt;font style=&quot;font-size: 14px;&quot;&gt;backend&lt;/font&gt;&lt;/b&gt;" style="text;html=1;align=center;verticalAlign=middle;whiteSpace=wrap;rounded=0;" parent="1" vertex="1">
          <mxGeometry x="538" y="210" width="60" height="30" as="geometry" />
        </mxCell>
        <mxCell id="61WDl6KjsDRLCkXbvjVP-7" value="" style="rounded=1;whiteSpace=wrap;html=1;fillColor=#f8cecc;strokeColor=#b85450;opacity=30;" parent="1" vertex="1">
          <mxGeometry x="767" y="250" width="250" height="280" as="geometry" />
        </mxCell>
        <mxCell id="61WDl6KjsDRLCkXbvjVP-8" value="&lt;b&gt;&lt;font style=&quot;font-size: 14px;&quot;&gt;middleware&lt;/font&gt;&lt;/b&gt;" style="text;html=1;align=center;verticalAlign=middle;whiteSpace=wrap;rounded=0;" parent="1" vertex="1">
          <mxGeometry x="862" y="210" width="60" height="30" as="geometry" />
        </mxCell>
        <mxCell id="61WDl6KjsDRLCkXbvjVP-9" value="redis" style="shape=datastore;whiteSpace=wrap;html=1;" parent="1" vertex="1">
          <mxGeometry x="864" y="340" width="60" height="60" as="geometry" />
        </mxCell>
        <mxCell id="61WDl6KjsDRLCkXbvjVP-10" value="write service&lt;br&gt;写服务" style="rounded=0;whiteSpace=wrap;html=1;" parent="1" vertex="1">
          <mxGeometry x="518" y="310" width="100" height="40" as="geometry" />
        </mxCell>
        <mxCell id="61WDl6KjsDRLCkXbvjVP-11" value="read service&lt;br&gt;读服务" style="rounded=0;whiteSpace=wrap;html=1;" parent="1" vertex="1">
          <mxGeometry x="518" y="420" width="100" height="40" as="geometry" />
        </mxCell>
        <mxCell id="61WDl6KjsDRLCkXbvjVP-12" value="" style="endArrow=classic;html=1;rounded=0;entryX=0;entryY=0.5;entryDx=0;entryDy=0;exitX=1;exitY=0.5;exitDx=0;exitDy=0;" parent="1" source="61WDl6KjsDRLCkXbvjVP-10" target="61WDl6KjsDRLCkXbvjVP-9" edge="1">
          <mxGeometry width="50" height="50" relative="1" as="geometry">
            <mxPoint x="670" y="400" as="sourcePoint" />
            <mxPoint x="720" y="350" as="targetPoint" />
          </mxGeometry>
        </mxCell>
        <mxCell id="61WDl6KjsDRLCkXbvjVP-13" value="" style="endArrow=classic;html=1;rounded=0;exitX=-0.01;exitY=0.678;exitDx=0;exitDy=0;exitPerimeter=0;entryX=0.997;entryY=0.58;entryDx=0;entryDy=0;entryPerimeter=0;" parent="1" edge="1">
          <mxGeometry width="50" height="50" relative="1" as="geometry">
            <mxPoint x="863.3999999999999" y="378.67999999999995" as="sourcePoint" />
            <mxPoint x="617.7" y="444.19999999999993" as="targetPoint" />
          </mxGeometry>
        </mxCell>
        <mxCell id="61WDl6KjsDRLCkXbvjVP-14" value="" style="endArrow=classic;html=1;rounded=0;entryX=0;entryY=0.5;entryDx=0;entryDy=0;" parent="1" target="61WDl6KjsDRLCkXbvjVP-10" edge="1">
          <mxGeometry width="50" height="50" relative="1" as="geometry">
            <mxPoint x="370" y="330" as="sourcePoint" />
            <mxPoint x="600" y="380" as="targetPoint" />
          </mxGeometry>
        </mxCell>
        <mxCell id="61WDl6KjsDRLCkXbvjVP-15" value="" style="endArrow=classic;html=1;rounded=0;entryX=0;entryY=0.5;entryDx=0;entryDy=0;" parent="1" edge="1">
          <mxGeometry width="50" height="50" relative="1" as="geometry">
            <mxPoint x="370" y="439.68" as="sourcePoint" />
            <mxPoint x="518" y="439.68" as="targetPoint" />
          </mxGeometry>
        </mxCell>
        <mxCell id="61WDl6KjsDRLCkXbvjVP-16" value="&lt;font style=&quot;font-size: 9px;&quot;&gt;contents, expire time, access limit&lt;br&gt;内容、超时、次数&lt;/font&gt;" style="text;html=1;align=center;verticalAlign=middle;whiteSpace=wrap;rounded=0;" parent="1" vertex="1">
          <mxGeometry x="414" y="290" width="80" height="30" as="geometry" />
        </mxCell>
        <mxCell id="61WDl6KjsDRLCkXbvjVP-17" value="&lt;font style=&quot;font-size: 9px;&quot;&gt;hash code&lt;/font&gt;" style="text;html=1;align=center;verticalAlign=middle;whiteSpace=wrap;rounded=0;" parent="1" vertex="1">
          <mxGeometry x="424" y="408" width="80" height="30" as="geometry" />
        </mxCell>
        <mxCell id="61WDl6KjsDRLCkXbvjVP-19" value="axios" style="rounded=0;whiteSpace=wrap;html=1;" parent="1" vertex="1">
          <mxGeometry x="195" y="350" width="100" height="40" as="geometry" />
        </mxCell>
        <mxCell id="61WDl6KjsDRLCkXbvjVP-20" value="" style="endArrow=classic;html=1;rounded=0;entryX=-0.011;entryY=0.544;entryDx=0;entryDy=0;exitX=1;exitY=0.75;exitDx=0;exitDy=0;entryPerimeter=0;" parent="1" target="61WDl6KjsDRLCkXbvjVP-9" edge="1">
          <mxGeometry width="50" height="50" relative="1" as="geometry">
            <mxPoint x="617.9999999999998" y="438" as="sourcePoint" />
            <mxPoint x="868" y="370" as="targetPoint" />
          </mxGeometry>
        </mxCell>
        <mxCell id="61WDl6KjsDRLCkXbvjVP-21" value="&lt;font size=&quot;1&quot;&gt;access limit -1 / del key&lt;br&gt;次数-1/清除key&lt;/font&gt;" style="text;html=1;align=center;verticalAlign=middle;whiteSpace=wrap;rounded=0;" parent="1" vertex="1">
          <mxGeometry x="641" y="381" width="120" height="30" as="geometry" />
        </mxCell>
        <mxCell id="WJeHVUPbVwmwfQ5ZHE4W-1" value="content&lt;br&gt;内容" style="text;html=1;align=center;verticalAlign=middle;resizable=0;points=[];autosize=1;strokeColor=none;fillColor=none;" parent="1" vertex="1">
          <mxGeometry x="700" y="410" width="60" height="40" as="geometry" />
        </mxCell>
        <mxCell id="WJeHVUPbVwmwfQ5ZHE4W-2" value="vue3" style="text;html=1;align=center;verticalAlign=middle;resizable=0;points=[];autosize=1;strokeColor=none;fillColor=none;" parent="1" vertex="1">
          <mxGeometry x="220" y="290" width="50" height="30" as="geometry" />
        </mxCell>
        <mxCell id="WJeHVUPbVwmwfQ5ZHE4W-3" value="&lt;h1&gt;Online Clipboard with Rust&lt;/h1&gt;" style="text;html=1;align=center;verticalAlign=middle;resizable=0;points=[];autosize=1;strokeColor=none;fillColor=none;" parent="1" vertex="1">
          <mxGeometry x="403" y="130" width="330" height="70" as="geometry" />
        </mxCell>
      </root>
    </mxGraphModel>
  </diagram>
</mxfile>
